<?xml version="1.0" encoding="UTF-8"?>
<svg id="Layer_1" xmlns="http://www.w3.org/2000/svg" viewBox="0 0 428.08 257.78">
  <path d="M345.16,45.29c-.21-.26-.38-.57-.64-.77-13.48-10.25-27.93-18.9-43.43-25.71-12.27-5.39-24.87-9.79-38.03-12.64-5.85-1.26-11.77-2.14-17.58-3.61-4.15-1.05-8.45-1.01-12.68-1.51-11.99-1.42-24.01-1.28-36.03-.33-3.33.26-6.66.6-9.97,1.03-8.74,1.13-17.34,2.97-25.89,5.09-9.14,2.26-17.98,5.45-26.75,8.85-12.25,4.76-23.86,10.8-35,17.75-6.08,3.8-12.05,7.77-17.58,12.36-2.85,2.33-5.76,4.58-8.52,7.01-11.64,10.24-22.07,21.58-31.2,34.11-11.93,16.37-21.53,33.99-28.49,53.01-5.69,15.55-9.53,31.54-11.59,48C.33,199.56-.02,211.22,0,222.9c0,4.3,2.65,6.95,6.89,6.95,29.74.02,59.49.02,89.23.01.95,0,1.9.04,2.83-.3,3.13-1.13,4.73-3.45,4.67-7.38-.14-10.08.79-20.04,3.14-29.84,4.02-16.83,11.23-32.13,22.06-45.67,5.14-6.43,11.07-12.07,17.41-17.3,6.32-4.67,12.95-8.83,20.07-12.18,12.89-6.07,26.43-9.61,40.68-10.29,9.83-.46,19.57.1,29.27,2.09,11.66,2.4,22.54,6.56,32.81,12.51,3.96,2.29,7.62,5.02,11.49,7.42.56.5,1.1,1.02,1.68,1.49,11.6,9.41,20.96,20.67,28.01,33.84,9.53,17.8,14.06,36.82,13.57,56.97-.13,5.51,3.44,8.65,8.69,8.64,29.47-.08,58.95-.03,88.42-.04,4.31,0,7.05-2.67,7.12-6.98.16-9.98-.26-19.92-1.24-29.86-1.28-12.85-3.87-25.44-7.37-37.85-5.64-20.02-14.33-38.66-25.44-56.2-9.44-14.9-20.73-28.28-33.42-40.5-4.86-4.68-9.88-9.22-15.41-13.14ZM205.09,257.75c2.07.11,4.43-.1,6.76-.74,7.69-2.09,12.62-7.18,15.93-14.24,5.58-11.9,11.75-23.51,17.78-35.19,4.87-9.44,9.71-18.9,14.56-28.36,1.23-2.39,1.67-4.92.97-7.53-2.04-7.66-10.51-9.97-16.93-4.73-18.84,15.35-37.68,30.71-56.6,45.97-8.34,6.73-10.71,16.37-8.37,26.07,2.7,11.18,13.04,19.16,25.9,18.76Z" style="fill: #fffefe;"/>
  <path d="M280.55,128.92c-3.87-2.41-7.54-5.13-11.49-7.42-10.27-5.95-21.15-10.11-32.81-12.51-9.7-1.99-19.44-2.55-29.27-2.09-14.25.67-27.79,4.21-40.68,10.29-7.12,3.35-13.75,7.51-20.07,12.18-3.47-4.48-6.94-8.96-10.4-13.44-8.85-11.45-17.68-22.91-26.53-34.35-9.23-11.93-18.46-23.85-27.7-35.78,5.53-4.58,11.5-8.56,17.58-12.36,11.14-6.96,22.75-13,35-17.75,8.76-3.4,17.61-6.59,26.75-8.85,8.54-2.11,17.15-3.95,25.89-5.09,3.31-.43,6.64-.77,9.97-1.03,12.02-.94,24.03-1.09,36.03.33,4.23.5,8.53.46,12.68,1.51,5.81,1.47,11.73,2.35,17.58,3.61,13.16,2.84,25.76,7.24,38.03,12.64,15.5,6.81,29.95,15.46,43.43,25.71.26.2.43.51.64.77-.11.94-.72,1.62-1.26,2.31-5.71,7.39-11.45,14.77-17.17,22.16-12.57,16.23-25.1,32.48-37.73,48.67-2.76,3.54-5.2,7.35-8.46,10.5Z" style="fill: #fbb040;"/>
  <path d="M280.55,128.92c3.26-3.14,5.7-6.96,8.46-10.5,12.62-16.19,25.16-32.44,37.73-48.67,5.72-7.39,11.46-14.76,17.17-22.16.53-.69,1.15-1.37,1.26-2.31,5.53,3.92,10.55,8.45,15.41,13.14,12.68,12.22,23.98,25.6,33.42,40.5,11.12,17.54,19.8,36.18,25.44,56.2,3.5,12.41,6.09,24.99,7.37,37.85.99,9.94,1.4,19.88,1.24,29.86-.07,4.32-2.81,6.98-7.12,6.98-29.47,0-58.95-.04-88.42.04-5.25.01-8.83-3.12-8.69-8.64.48-20.15-4.04-39.17-13.57-56.97-7.06-13.18-16.42-24.43-28.01-33.84-.58-.47-1.12-.99-1.68-1.49Z" style="fill: #f15a29;"/>
  <path d="M81.6,45.8c9.23,11.93,18.47,23.85,27.7,35.78,8.85,11.45,17.69,22.9,26.53,34.35,3.46,4.48,6.94,8.96,10.4,13.44-6.33,5.23-12.26,10.88-17.41,17.3-10.84,13.54-18.04,28.84-22.06,45.67-2.34,9.81-3.27,19.77-3.14,29.84.05,3.93-1.54,6.25-4.67,7.38-.93.34-1.89.3-2.83.3-29.74,0-59.49.01-89.23-.01-4.25,0-6.89-2.65-6.89-6.95-.02-11.68.33-23.34,1.79-34.97,2.07-16.45,5.9-32.45,11.59-48,6.97-19.02,16.56-36.64,28.49-53.01,9.14-12.53,19.57-23.88,31.2-34.11,2.76-2.43,5.68-4.68,8.52-7.01Z" style="fill: #50a756;"/>
  <path d="M228.42,242.33c-9.89,8.23-22.95,8.32-31.96,1.17-7.82-6.21-11.89-15.26-9.46-25.7,5.51-23.67,10.9-47.37,16.3-71.07,1.84-8.09,9.93-11.48,16.26-6.7,2.16,1.63,3.37,3.9,3.87,6.54,2,10.44,4.01,20.87,5.99,31.31,2.44,12.91,4.73,25.86,7.66,38.68,1.74,7.6.99,14.64-3.79,21.03-1.45,1.93-3.17,3.55-4.87,4.74Z" style="fill: #3a56a6;"/>
</svg>